<?xml version="1.0" encoding="UTF-8" standalone="no"?>
<!DOCTYPE svg PUBLIC "-//W3C//DTD SVG 1.1//EN"
 "http://www.w3.org/Graphics/SVG/1.1/DTD/svg11.dtd">
<!-- Generated by graphviz version 2.40.1 (20161225.0304)
 -->
<!-- Title: flow Pages: 1 -->
<svg width="338pt" height="305pt"
 viewBox="0.00 0.00 337.50 305.00" xmlns="http://www.w3.org/2000/svg" xmlns:xlink="http://www.w3.org/1999/xlink">
<g id="graph0" class="graph" transform="scale(1 1) rotate(0) translate(4 301)">
<title>flow</title>
<polygon fill="#ffffff" stroke="transparent" points="-4,4 -4,-301 333.5,-301 333.5,4 -4,4"/>
<!-- a -->
<g id="node1" class="node">
<title>a</title>
<polygon fill="none" stroke="#242424" points="149,-297 42,-297 42,-261 149,-261 149,-297"/>
<text text-anchor="middle" x="95.5" y="-275.3" font-family="Times,serif" font-size="14.00" fill="#242424">input widget</text>
</g>
<!-- b -->
<g id="node2" class="node">
<title>b</title>
<polygon fill="none" stroke="#242424" points="191,-210 0,-210 0,-174 191,-174 191,-210"/>
<text text-anchor="middle" x="95.5" y="-188.3" font-family="Times,serif" font-size="14.00" fill="#242424">database query function</text>
</g>
<!-- a&#45;&gt;b -->
<g id="edge1" class="edge">
<title>a&#45;&gt;b</title>
<path fill="none" stroke="#242424" d="M95.5,-260.9735C95.5,-249.1918 95.5,-233.5607 95.5,-220.1581"/>
<polygon fill="#242424" stroke="#242424" points="99.0001,-220.0033 95.5,-210.0034 92.0001,-220.0034 99.0001,-220.0033"/>
<text text-anchor="middle" x="133.5" y="-231.8" font-family="Times,serif" font-size="14.00" fill="#000000">dataset ID</text>
</g>
<!-- d -->
<g id="node3" class="node">
<title>d</title>
<polygon fill="none" stroke="#242424" points="228.5,-123 174.5,-123 174.5,-87 228.5,-87 228.5,-123"/>
<text text-anchor="middle" x="201.5" y="-101.3" font-family="Times,serif" font-size="14.00" fill="#242424">filter</text>
</g>
<!-- b&#45;&gt;d -->
<g id="edge2" class="edge">
<title>b&#45;&gt;d</title>
<path fill="none" stroke="#242424" d="M117.4633,-173.9735C133.0972,-161.1419 154.2942,-143.7443 171.4879,-129.6326"/>
<polygon fill="#242424" stroke="#242424" points="174.0555,-132.0531 179.5649,-123.0034 169.6145,-126.6422 174.0555,-132.0531"/>
<text text-anchor="middle" x="182.5" y="-144.8" font-family="Times,serif" font-size="14.00" fill="#000000">dataset</text>
</g>
<!-- e -->
<g id="node5" class="node">
<title>e</title>
<polygon fill="none" stroke="#242424" points="262,-36 141,-36 141,0 262,0 262,-36"/>
<text text-anchor="middle" x="201.5" y="-14.3" font-family="Times,serif" font-size="14.00" fill="#242424">display widget</text>
</g>
<!-- d&#45;&gt;e -->
<g id="edge4" class="edge">
<title>d&#45;&gt;e</title>
<path fill="none" stroke="#242424" d="M201.5,-86.9735C201.5,-75.1918 201.5,-59.5607 201.5,-46.1581"/>
<polygon fill="#242424" stroke="#242424" points="205.0001,-46.0033 201.5,-36.0034 198.0001,-46.0034 205.0001,-46.0033"/>
<text text-anchor="middle" x="257" y="-57.8" font-family="Times,serif" font-size="14.00" fill="#000000">filtered dataset</text>
</g>
<!-- c -->
<g id="node4" class="node">
<title>c</title>
<polygon fill="none" stroke="#242424" points="316,-210 209,-210 209,-174 316,-174 316,-210"/>
<text text-anchor="middle" x="262.5" y="-188.3" font-family="Times,serif" font-size="14.00" fill="#242424">input widget</text>
</g>
<!-- c&#45;&gt;d -->
<g id="edge3" class="edge">
<title>c&#45;&gt;d</title>
<path fill="none" stroke="#242424" d="M249.8608,-173.9735C241.2728,-161.7252 229.7679,-145.3165 220.1341,-131.5766"/>
<polygon fill="#242424" stroke="#242424" points="222.7298,-129.1819 214.123,-123.0034 216.9983,-133.2006 222.7298,-129.1819"/>
<text text-anchor="middle" x="282.5" y="-144.8" font-family="Times,serif" font-size="14.00" fill="#000000">filter criteria</text>
</g>
</g>
</svg>
