<?xml version="1.0" encoding="UTF-8" standalone="no"?>
<!DOCTYPE svg PUBLIC "-//W3C//DTD SVG 1.1//EN"
 "http://www.w3.org/Graphics/SVG/1.1/DTD/svg11.dtd">
<!-- Generated by graphviz version 2.40.1 (20161225.0304)
 -->
<!-- Title: flow Pages: 1 -->
<svg width="583pt" height="372pt"
 viewBox="0.00 0.00 583.00 372.00" xmlns="http://www.w3.org/2000/svg" xmlns:xlink="http://www.w3.org/1999/xlink">
<g id="graph0" class="graph" transform="scale(1 1) rotate(0) translate(4 368)">
<title>flow</title>
<polygon fill="#ffffff" stroke="transparent" points="-4,4 -4,-368 579,-368 579,4 -4,4"/>
<g id="clust1" class="cluster">
<title>cluster_controller</title>
</g>
<!-- state -->
<g id="node1" class="node">
<title>state</title>
<polygon fill="none" stroke="#424242" points="90,-259 0,-259 0,-221 96,-221 96,-253 90,-259"/>
<polyline fill="none" stroke="#424242" points="90,-259 90,-253 "/>
<polyline fill="none" stroke="#424242" points="96,-253 90,-253 "/>
<text text-anchor="middle" x="48" y="-243.8" font-family="Times,serif" font-size="14.00" fill="#242424">application</text>
<text text-anchor="middle" x="48" y="-228.8" font-family="Times,serif" font-size="14.00" fill="#242424">state</text>
</g>
<!-- ui_code -->
<g id="node2" class="node">
<title>ui_code</title>
<polygon fill="none" stroke="#424242" points="279,-348 171,-295 279,-242 387,-295 279,-348"/>
<text text-anchor="middle" x="279" y="-306.3" font-family="Times,serif" font-size="14.00" fill="#242424">declarative</text>
<text text-anchor="middle" x="279" y="-291.3" font-family="Times,serif" font-size="14.00" fill="#242424">UI</text>
<text text-anchor="middle" x="279" y="-276.3" font-family="Times,serif" font-size="14.00" fill="#242424">specification</text>
</g>
<!-- state&#45;&gt;ui_code -->
<g id="edge1" class="edge">
<title>state&#45;&gt;ui_code</title>
<path fill="none" stroke="#424242" d="M96.144,-251.4629C125.027,-258.3398 162.5481,-267.2733 196.0793,-275.257"/>
<polygon fill="#424242" stroke="#424242" points="195.3417,-278.6791 205.8804,-277.5906 196.963,-271.8695 195.3417,-278.6791"/>
<text text-anchor="middle" x="133.5" y="-282.8" font-family="Times,serif" font-size="14.00" fill="#000000">feeds</text>
<text text-anchor="middle" x="133.5" y="-267.8" font-family="Times,serif" font-size="14.00" fill="#000000">into</text>
</g>
<!-- ui -->
<g id="node4" class="node">
<title>ui</title>
<polygon fill="none" stroke="#424242" points="575,-296 494,-296 494,-292 490,-292 490,-288 494,-288 494,-266 490,-266 490,-262 494,-262 494,-258 575,-258 575,-296"/>
<polyline fill="none" stroke="#424242" points="494,-292 498,-292 498,-288 494,-288 "/>
<polyline fill="none" stroke="#424242" points="494,-266 498,-266 498,-262 494,-262 "/>
<text text-anchor="middle" x="534.5" y="-280.8" font-family="Times,serif" font-size="14.00" fill="#242424">user</text>
<text text-anchor="middle" x="534.5" y="-265.8" font-family="Times,serif" font-size="14.00" fill="#242424">interface</text>
</g>
<!-- ui_code&#45;&gt;ui -->
<g id="edge2" class="edge">
<title>ui_code&#45;&gt;ui</title>
<path fill="none" stroke="#424242" d="M373.7757,-288.323C411.033,-285.6983 452.3069,-282.7905 483.6996,-280.5789"/>
<polygon fill="#424242" stroke="#424242" points="484.2176,-284.0512 493.9469,-279.857 483.7256,-277.0685 484.2176,-284.0512"/>
<text text-anchor="middle" x="440.5" y="-304.8" font-family="Times,serif" font-size="14.00" fill="#000000">produces/</text>
<text text-anchor="middle" x="440.5" y="-289.8" font-family="Times,serif" font-size="14.00" fill="#000000">updates</text>
</g>
<!-- event_handler -->
<g id="node3" class="node">
<title>event_handler</title>
<polygon fill="none" stroke="#424242" points="279,-224 208,-186 279,-148 350,-186 279,-224"/>
<text text-anchor="middle" x="279" y="-189.8" font-family="Times,serif" font-size="14.00" fill="#242424">event</text>
<text text-anchor="middle" x="279" y="-174.8" font-family="Times,serif" font-size="14.00" fill="#242424">handler</text>
</g>
<!-- event_handler&#45;&gt;state -->
<g id="edge5" class="edge">
<title>event_handler&#45;&gt;state</title>
<path fill="none" stroke="#424242" stroke-dasharray="5,2" d="M229.3233,-197.6127C193.1446,-206.0701 144.0315,-217.5511 106.0441,-226.4312"/>
<polygon fill="#424242" stroke="#424242" points="105.0847,-223.0611 96.144,-228.7456 106.6782,-229.8773 105.0847,-223.0611"/>
<text text-anchor="middle" x="133.8032" y="-201.9629" font-family="Times,serif" font-size="14.00" fill="#000000">(maybe)</text>
<text text-anchor="middle" x="133.8032" y="-186.9629" font-family="Times,serif" font-size="14.00" fill="#000000">updates</text>
</g>
<!-- effects -->
<g id="node6" class="node">
<title>effects</title>
<polygon fill="none" stroke="#424242" points="357.587,-76 232.5727,-76 200.413,0 325.4273,0 357.587,-76"/>
<text text-anchor="middle" x="279" y="-41.8" font-family="Times,serif" font-size="14.00" fill="#242424">external</text>
<text text-anchor="middle" x="279" y="-26.8" font-family="Times,serif" font-size="14.00" fill="#242424">effects</text>
</g>
<!-- event_handler&#45;&gt;effects -->
<g id="edge6" class="edge">
<title>event_handler&#45;&gt;effects</title>
<path fill="none" stroke="#424242" stroke-dasharray="5,2" d="M279,-147.8121C279,-127.2857 279,-106.7593 279,-86.2329"/>
<polygon fill="#424242" stroke="#424242" points="282.5001,-86.1562 279,-76.1563 275.5001,-86.1563 282.5001,-86.1562"/>
<text text-anchor="middle" x="312.5" y="-119.5116" font-family="Times,serif" font-size="14.00" fill="#000000">(maybe)</text>
<text text-anchor="middle" x="312.5" y="-104.5116" font-family="Times,serif" font-size="14.00" fill="#000000">produces</text>
</g>
<!-- event -->
<g id="node5" class="node">
<title>event</title>
<polygon fill="none" stroke="#424242" points="556.5,-204 506.5,-204 506.5,-168 562.5,-168 562.5,-198 556.5,-204"/>
<polyline fill="none" stroke="#424242" points="556.5,-204 556.5,-198 "/>
<polyline fill="none" stroke="#424242" points="562.5,-198 556.5,-198 "/>
<text text-anchor="middle" x="534.5" y="-182.3" font-family="Times,serif" font-size="14.00" fill="#242424">event</text>
</g>
<!-- ui&#45;&gt;event -->
<g id="edge3" class="edge">
<title>ui&#45;&gt;event</title>
<path fill="none" stroke="#424242" d="M534.5,-257.9858C534.5,-245.4365 534.5,-228.7635 534.5,-214.6238"/>
<polygon fill="#424242" stroke="#424242" points="538.0001,-214.4152 534.5,-204.4152 531.0001,-214.4152 538.0001,-214.4152"/>
<text text-anchor="middle" x="524" y="-227.3" font-family="Times,serif" font-size="14.00" fill="#000000">generates &#160;&#160;&#160;&#160;&#160;&#160;&#160;&#160;&#160;&#160;&#160;</text>
</g>
<!-- event&#45;&gt;event_handler -->
<g id="edge4" class="edge">
<title>event&#45;&gt;event_handler</title>
<path fill="none" stroke="#424242" d="M506.3381,-186C471.4175,-186 410.3844,-186 360.3446,-186"/>
<polygon fill="#424242" stroke="#424242" points="360.171,-182.5001 350.171,-186 360.171,-189.5001 360.171,-182.5001"/>
<text text-anchor="middle" x="417.4593" y="-170.5054" font-family="Times,serif" font-size="14.00" fill="#000000">feeds</text>
<text text-anchor="middle" x="417.4593" y="-155.5054" font-family="Times,serif" font-size="14.00" fill="#000000">into</text>
</g>
<!-- event&#45;&gt;effects -->
</g>
</svg>
